<?xml version="1.0" encoding="utf-8"?>
<!-- Generator: Adobe Illustrator 24.0.1, SVG Export Plug-In . SVG Version: 6.00 Build 0)  -->
<svg version="1.1" xmlns="http://www.w3.org/2000/svg" xmlns:xlink="http://www.w3.org/1999/xlink" width="2160px" height="2160px"
	 viewBox="0 0 1678.5 1606.54" style="enable-background:new 0 0 1678.5 1606.54;" xml:space="preserve">
<style type="text/css">
	.st0{fill:url(#SVGID_1_);}
	.st1{fill:#999999;}
	.st2{fill:#666666;}
	.st3{fill:#333333;}
	.st4{fill:#4D4D4D;}
	.st5{fill:none;stroke:#808080;stroke-width:4;stroke-miterlimit:10;}
	.st6{stroke:#FCEE21;stroke-width:8;stroke-miterlimit:10;}
	.st7{stroke:#FFFFFF;stroke-width:8;stroke-miterlimit:10;}
	.st8{fill:#1A1A1A;}
	.st9{fill:none;stroke:#808080;stroke-width:5;stroke-miterlimit:10;}
	.st10{fill:none;stroke:#666666;stroke-width:4;stroke-miterlimit:10;}
	.st11{fill:url(#SVGID_2_);}
	.st12{fill:none;stroke:#B3B3B3;stroke-width:4;stroke-miterlimit:10;}
	.st13{fill:url(#SVGID_3_);}
	.st14{fill:url(#SVGID_4_);}
	.st15{fill:url(#SVGID_5_);}
	.st16{fill:none;}
	.st17{fill:#FF0000;}
	.st18{fill:#FBB03B;}
	.st19{fill:#FFFF00;}
	.st20{fill:#009245;}
	.st21{fill:#29ABE2;}
	.st22{fill:#E6E6E6;}
	.st23{fill:none;stroke:#E6E6E6;stroke-width:9;stroke-miterlimit:10;}
	.st24{fill:#B3B3B3;}
	.st25{fill:#8CC63F;}
	.st26{fill:url(#SVGID_6_);}
	.st27{fill:url(#SVGID_7_);}
</style>
<g id="tvBase">
	<linearGradient id="SVGID_1_" gradientUnits="userSpaceOnUse" x1="839.25" y1="-2.4461" x2="839.25" y2="1558.5179">
		<stop  offset="0" style="stop-color:#E6E6E6"/>
		<stop  offset="1" style="stop-color:#CCCCCC"/>
	</linearGradient>
	<path class="st0" d="M1668.5,0H10C4.48,0,0,4.48,0,10v1531.5c0,5.52,4.48,10,10,10h1658.5c5.52,0,10-4.48,10-10V10
		C1678.5,4.48,1674.02,0,1668.5,0z M1464.75,1054.57c-1.96,32.4-30.07,59.67-62.46,60.78c-374.81,20.93-749.96,21.1-1125.49,0
		c-32.35-1.82-60.5-28.38-62.46-60.78c-15.73-265.33-15.73-530.66,0-795.99c1.96-32.4,30.1-59.05,62.46-60.78
		c376.58-20.04,751.76-20.14,1125.49,0c32.36,1.74,60.5,28.38,62.46,60.78C1480.48,523.91,1480.48,789.24,1464.75,1054.57z"/>
	<path class="st1" d="M1624.35,1378.59h-67.56c-1.45,0-2.62-1.17-2.62-2.62v-46.19c0-1.45,1.17-2.62,2.62-2.62h67.56
		c1.45,0,2.62,1.17,2.62,2.62v46.19C1626.97,1377.42,1625.8,1378.59,1624.35,1378.59z"/>
	<path class="st2" d="M1618.47,39.07H60.63c-9.35,0-17,7.65-17,17v1201c0,9.35,7.65,17,17,17h1557.84c9.35,0,17-7.65,17-17v-1201
		C1635.47,46.72,1627.82,39.07,1618.47,39.07z M1464.75,1054.57c-1.96,32.4-30.07,59.67-62.46,60.78
		c-374.81,20.93-749.96,21.1-1125.49,0c-32.35-1.82-60.5-28.38-62.46-60.78c-15.73-265.33-15.73-530.66,0-795.99
		c1.96-32.4,30.1-59.05,62.46-60.78c376.58-20.04,751.76-20.14,1125.49,0c32.36,1.74,60.5,28.38,62.46,60.78
		C1480.48,523.91,1480.48,789.24,1464.75,1054.57z"/>
	<path class="st3" d="M1565.55,94.57h-1452c-7.7,0-14,6.3-14,14v1096c0,7.7,6.3,14,14,14h1452c7.7,0,14-6.3,14-14v-1096
		C1579.55,100.87,1573.25,94.57,1565.55,94.57z M1464.75,1054.57c-1.96,32.4-30.07,59.67-62.46,60.78
		c-374.81,20.93-749.96,21.1-1125.49,0c-32.35-1.82-60.5-28.38-62.46-60.78c-15.73-265.33-15.73-530.66,0-795.99
		c1.96-32.4,30.1-59.05,62.46-60.78c376.58-20.04,751.76-20.14,1125.49,0c32.36,1.74,60.5,28.38,62.46,60.78
		C1480.48,523.91,1480.48,789.24,1464.75,1054.57z"/>
	<g>
		<circle class="st4" cx="1530.44" cy="1473.86" r="25.62"/>
		<circle class="st4" cx="1448.66" cy="1473.86" r="25.62"/>
		<circle class="st5" cx="1530.44" cy="1473.86" r="33.44"/>
		<circle class="st5" cx="1448.42" cy="1473.86" r="33.44"/>
		<circle class="st1" cx="1530.44" cy="1473.86" r="18.47"/>
		<circle class="st1" cx="1448.42" cy="1473.86" r="18.47"/>
		<circle class="st6" cx="1448.42" cy="1473.86" r="12.56"/>
		<circle class="st7" cx="1530.44" cy="1473.86" r="12.56"/>
	</g>
	<path class="st4" d="M1521.78,128.57H157.32c-7.15,0-13,5.85-13,13v1030c0,7.15,5.85,13,13,13h1364.46c7.15,0,13-5.85,13-13v-1030
		C1534.78,134.42,1528.93,128.57,1521.78,128.57z M1464.75,1054.57c-1.96,32.4-30.07,59.67-62.46,60.78
		c-374.81,20.93-749.96,21.1-1125.49,0c-32.35-1.82-60.5-28.38-62.46-60.78c-15.73-265.33-15.73-530.66,0-795.99
		c1.96-32.4,30.1-59.05,62.46-60.78c376.58-20.04,751.76-20.14,1125.49,0c32.36,1.74,60.5,28.38,62.46,60.78
		C1480.48,523.91,1480.48,789.24,1464.75,1054.57z"/>
	<path class="st8" d="M1476.55,174.57h-1274c-6.6,0-12,5.4-12,12v940c0,6.6,5.4,12,12,12h1274c6.6,0,12-5.4,12-12v-940
		C1488.55,179.97,1483.15,174.57,1476.55,174.57z M1464.75,1054.57c-1.96,32.4-30.07,59.67-62.46,60.78
		c-374.81,20.93-749.96,21.1-1125.49,0c-32.35-1.82-60.5-28.38-62.46-60.78c-15.73-265.33-15.73-530.66,0-795.99
		c1.96-32.4,30.1-59.05,62.46-60.78c376.58-20.04,751.76-20.14,1125.49,0c32.36,1.74,60.5,28.38,62.46,60.78
		C1480.48,523.91,1480.48,789.24,1464.75,1054.57z"/>
	<path class="st9" d="M55.55,1285.57h1568c13.75,0,25-11.25,25-25v-1208c0-13.75-11.25-25-25-25h-1568c-13.75,0-25,11.25-25,25v1208
		C30.55,1274.32,41.8,1285.57,55.55,1285.57z"/>
	<line class="st10" x1="1392.5" y1="1425.86" x2="0" y2="1425.86"/>
	<line class="st5" x1="1678.5" y1="1425.86" x2="1392.5" y2="1425.86"/>
	<line class="st10" x1="1392.5" y1="1425.86" x2="1392.5" y2="1551.5"/>
	<linearGradient id="SVGID_2_" gradientUnits="userSpaceOnUse" x1="1590.5703" y1="1327.6824" x2="1590.5703" y2="1376.7853">
		<stop  offset="0" style="stop-color:#4D4D4D"/>
		<stop  offset="1" style="stop-color:#666666"/>
	</linearGradient>
	<path class="st11" d="M1623.09,1376.79h-65.03c-1.1,0-2-0.9-2-2v-43.82c0-1.1,0.9-2,2-2h65.03c1.1,0,2,0.9,2,2v43.82
		C1625.09,1375.89,1624.19,1376.79,1623.09,1376.79z"/>
	<rect x="1261.04" y="1319.08" class="st5" width="269.39" height="57.71"/>
	<line class="st12" x1="1678.5" y1="1300.2" x2="0" y2="1300.2"/>
	<line class="st12" x1="1678.5" y1="1397.28" x2="0" y2="1397.28"/>
	<linearGradient id="SVGID_3_" gradientUnits="userSpaceOnUse" x1="834.3565" y1="1550.1777" x2="834.3565" y2="1589.3749">
		<stop  offset="0" style="stop-color:#666666"/>
		<stop  offset="1" style="stop-color:#999999"/>
	</linearGradient>
	<polygon class="st13" points="43.63,1551.5 1625.09,1551.5 1615.38,1589.28 54.03,1589.28 	"/>
	<linearGradient id="SVGID_4_" gradientUnits="userSpaceOnUse" x1="1536.2166" y1="1606.4347" x2="1536.2166" y2="1589.9929">
		<stop  offset="0" style="stop-color:#808080"/>
		<stop  offset="1" style="stop-color:#4D4D4D"/>
	</linearGradient>
	<rect x="1481.86" y="1589.28" class="st14" width="108.71" height="17.26"/>
	<linearGradient id="SVGID_5_" gradientUnits="userSpaceOnUse" x1="136.1941" y1="1606.4347" x2="136.1941" y2="1589.9929">
		<stop  offset="0" style="stop-color:#808080"/>
		<stop  offset="1" style="stop-color:#4D4D4D"/>
	</linearGradient>
	<rect x="81.84" y="1589.28" class="st15" width="108.71" height="17.26"/>
	<g>
		<rect x="1274.76" y="1330.4" class="st16" width="195.24" height="36.67"/>
		<path class="st2" d="M1284.44,1344.6h-3.72l-6.02-13.8h3.84l4.06,10.16h0.04l4.08-10.16h3.74L1284.44,1344.6z"/>
		<path class="st2" d="M1295.24,1344.6h-3.48v-13.8h3.48V1344.6z"/>
		<path class="st2" d="M1304.06,1344.6h-6.12v-13.8h6.12c6.34,0,9,2.34,9,6.82C1313.07,1341.8,1310.46,1344.6,1304.06,1344.6z
			 M1303.88,1333.76h-2.46v7.82h2.46c4.16,0,5.58-1.52,5.58-3.94C1309.46,1335.2,1308.14,1333.76,1303.88,1333.76z"/>
		<path class="st2" d="M1326,1333.72h-7.52v2.48h6.78v2.72h-6.78v2.7h7.7v2.98h-11.2v-13.8H1326V1333.72z"/>
		<path class="st2" d="M1335.52,1344.84c-5.1,0-8.06-2.82-8.06-7.14s2.98-7.14,8.06-7.14c5.1,0,8.06,2.82,8.06,7.14
			S1340.6,1344.84,1335.52,1344.84z M1335.52,1333.58c-2.78,0-4.48,1.6-4.48,4.08c0,2.5,1.7,4.1,4.5,4.1c2.76,0,4.46-1.6,4.46-4.1
			C1340,1335.18,1338.3,1333.58,1335.52,1333.58z"/>
		<path class="st2" d="M1369.57,1344.6h-3.42v-8.16h-0.04l-4.02,8.16h-3.02l-4.02-8.16H1355v8.16h-3.42v-13.8h4.2l4.76,9.84h0.04
			l4.78-9.84h4.2V1344.6z"/>
		<path class="st2" d="M1379.6,1344.84c-5.1,0-8.06-2.82-8.06-7.14s2.98-7.14,8.06-7.14c5.1,0,8.06,2.82,8.06,7.14
			S1384.68,1344.84,1379.6,1344.84z M1379.6,1333.58c-2.78,0-4.48,1.6-4.48,4.08c0,2.5,1.7,4.1,4.5,4.1c2.76,0,4.46-1.6,4.46-4.1
			C1384.08,1335.18,1382.38,1333.58,1379.6,1333.58z"/>
		<path class="st2" d="M1403.73,1344.6h-3.5l-7.06-8.48h-0.04v8.48h-3.48v-13.8h3.5l7.04,8.48h0.04v-8.48h3.5V1344.6z"/>
		<path class="st2" d="M1409.9,1344.6h-3.48v-13.8h3.48V1344.6z"/>
		<path class="st2" d="M1426.04,1333.76h-5.56v10.84h-3.5v-10.84h-5.58v-2.96h14.64V1333.76z"/>
		<path class="st2" d="M1434.34,1344.84c-5.1,0-8.06-2.82-8.06-7.14s2.98-7.14,8.06-7.14c5.1,0,8.06,2.82,8.06,7.14
			S1439.42,1344.84,1434.34,1344.84z M1434.34,1333.58c-2.78,0-4.48,1.6-4.48,4.08c0,2.5,1.7,4.1,4.5,4.1c2.76,0,4.46-1.6,4.46-4.1
			C1438.82,1335.18,1437.12,1333.58,1434.34,1333.58z"/>
		<path class="st2" d="M1453.58,1344.6l-2.84-4.32h-2.88v4.32h-3.48v-13.8h6.34c4.54,0,6.62,1.66,6.62,4.76c0,2.02-1.02,3.46-3,4.2
			l3.52,4.84H1453.58z M1450.6,1333.76h-2.74v3.76h2.62c2.26,0,3.26-0.68,3.26-1.88C1453.74,1334.38,1452.88,1333.76,1450.6,1333.76
			z"/>
		<path class="st2" d="M1293.97,1364.6h-3.42v-8.16h-0.04l-4.02,8.16h-3.02l-4.02-8.16h-0.04v8.16h-3.42v-13.8h4.2l4.76,9.84h0.04
			l4.78-9.84h4.2V1364.6z"/>
		<path class="st2" d="M1304,1364.84c-5.1,0-8.06-2.82-8.06-7.14s2.98-7.14,8.06-7.14c5.1,0,8.06,2.82,8.06,7.14
			S1309.08,1364.84,1304,1364.84z M1304,1353.58c-2.78,0-4.48,1.6-4.48,4.08c0,2.5,1.7,4.1,4.5,4.1c2.76,0,4.46-1.6,4.46-4.1
			C1308.48,1355.18,1306.78,1353.58,1304,1353.58z"/>
		<path class="st2" d="M1320.16,1364.6h-6.12v-13.8h6.12c6.34,0,9,2.34,9,6.82C1329.17,1361.8,1326.57,1364.6,1320.16,1364.6z
			 M1319.98,1353.76h-2.46v7.82h2.46c4.16,0,5.58-1.52,5.58-3.94C1325.57,1355.2,1324.25,1353.76,1319.98,1353.76z"/>
		<path class="st2" d="M1342.1,1353.72h-7.52v2.48h6.78v2.72h-6.78v2.7h7.7v2.98h-11.2v-13.8h11.02V1353.72z"/>
		<path class="st2" d="M1347.88,1361.6h7.74v3h-11.22v-13.8h3.48V1361.6z"/>
		<path class="st2" d="M1369.38,1364.6h-3.48v-10.22l-3.26,1.38l-1.02-2.58l5.18-2.38h2.58V1364.6z"/>
		<path class="st2" d="M1382.58,1353.34l-6.68,11.26h-4.28l6.58-10.8v-0.04h-6.76v-2.96h11.14V1353.34z"/>
		<path class="st2" d="M1389.96,1364.84c-3.26,0-6.76-2-6.76-7.14c0-5.14,3.5-7.14,6.76-7.14s6.74,2,6.74,7.14
			C1396.7,1362.84,1393.22,1364.84,1389.96,1364.84z M1389.96,1353.58c-1.72,0-3.22,1.18-3.22,4.1c0,2.9,1.5,4.08,3.22,4.08
			c1.7,0,3.2-1.18,3.2-4.08C1393.16,1354.76,1391.66,1353.58,1389.96,1353.58z"/>
		<path class="st2" d="M1405,1364.6h-3.48v-10.22l-3.26,1.38l-1.02-2.58l5.18-2.38h2.58V1364.6z"/>
	</g>
	<g>
		<rect x="1423.04" y="1518.09" class="st16" width="195.24" height="36.67"/>
		<path class="st4" d="M1429.14,1528.03h-1.65l-4.41-9.67h1.71l3.53,8.07h0.03l3.54-8.07h1.67L1429.14,1528.03z"/>
		<path class="st4" d="M1436.29,1528.03h-1.55v-9.67h1.55V1528.03z"/>
		<path class="st4" d="M1442.7,1528.03h-4.19v-9.67h4.19c4.03,0,6.05,1.53,6.05,4.76
			C1448.75,1526.26,1446.76,1528.03,1442.7,1528.03z M1442.63,1519.72h-2.58v6.91h2.58c3.12,0,4.54-1.21,4.54-3.5
			C1447.17,1520.87,1445.8,1519.72,1442.63,1519.72z"/>
		<path class="st4" d="M1457.68,1519.72h-5.85v2.69h5.29v1.32h-5.29v2.91h6v1.39h-7.54v-9.67h7.4V1519.72z"/>
		<path class="st4" d="M1464.14,1528.2c-3.33,0-5.5-1.91-5.5-5s2.17-5,5.52-5c3.33,0,5.5,1.9,5.5,5S1467.49,1528.2,1464.14,1528.2z
			 M1464.15,1519.58c-2.35,0-3.94,1.37-3.94,3.6s1.58,3.59,3.94,3.59c2.34,0,3.92-1.36,3.92-3.59S1466.49,1519.58,1464.15,1519.58z"
			/>
	</g>
	<g>
		<rect x="1507.72" y="1518.09" class="st16" width="195.24" height="36.67"/>
		<path class="st4" d="M1518.32,1528.03h-1.69l-1.28-2.87h-4.66l-1.25,2.87h-1.65l4.43-9.67h1.68L1518.32,1528.03z M1513.04,1519.81
			h-0.03l-1.81,4.16h3.64L1513.04,1519.81z"/>
		<path class="st4" d="M1528.46,1523.27c0,3.1-1.53,4.93-4.85,4.93c-3.32,0-4.75-1.69-4.75-4.93v-4.9h1.54v4.92
			c0,2.34,1.05,3.49,3.32,3.49c2.17,0,3.22-1.18,3.22-3.49v-4.92h1.51V1523.27z"/>
		<path class="st4" d="M1534.67,1528.03h-4.19v-9.67h4.19c4.03,0,6.05,1.53,6.05,4.76
			C1540.72,1526.26,1538.73,1528.03,1534.67,1528.03z M1534.6,1519.72h-2.58v6.91h2.58c3.12,0,4.54-1.21,4.54-3.5
			C1539.14,1520.87,1537.77,1519.72,1534.6,1519.72z"/>
		<path class="st4" d="M1543.94,1528.03h-1.55v-9.67h1.55V1528.03z"/>
		<path class="st4" d="M1551.12,1528.2c-3.33,0-5.5-1.91-5.5-5s2.17-5,5.52-5c3.33,0,5.5,1.9,5.5,5S1554.47,1528.2,1551.12,1528.2z
			 M1551.13,1519.58c-2.35,0-3.94,1.37-3.94,3.6s1.58,3.59,3.94,3.59c2.34,0,3.92-1.36,3.92-3.59S1553.47,1519.58,1551.13,1519.58z"
			/>
	</g>
	<g>
		<rect x="1558.65" y="1405.51" class="st16" width="195.24" height="36.67"/>
		<path class="st4" d="M1564.43,1413.19h-2.82v3.68h-1.76v-11.04h4.55c3.51,0,5.07,1.26,5.07,3.67
			C1569.47,1411.86,1567.74,1413.19,1564.43,1413.19z M1564.35,1407.38h-2.74v4.31h2.74c2.3,0,3.3-0.74,3.3-2.16
			C1567.65,1408.05,1566.64,1407.38,1564.35,1407.38z"/>
		<path class="st4" d="M1576.7,1417.07c-3.81,0-6.29-2.18-6.29-5.71c0-3.54,2.48-5.71,6.31-5.71c3.81,0,6.29,2.18,6.29,5.71
			C1583.01,1414.89,1580.53,1417.07,1576.7,1417.07z M1576.72,1407.22c-2.69,0-4.5,1.57-4.5,4.11s1.81,4.1,4.5,4.1
			c2.67,0,4.48-1.55,4.48-4.1S1579.39,1407.22,1576.72,1407.22z"/>
		<path class="st4" d="M1597.71,1416.87h-1.81l-3.81-8.8h-0.03l-3.81,8.8h-1.81l-2.85-11.04h1.84l2.06,8.56h0.03l3.68-8.56h1.73
			l3.68,8.56h0.03l2.07-8.56h1.84L1597.71,1416.87z"/>
		<path class="st4" d="M1610.48,1407.38h-6.69v3.07h6.05v1.5h-6.05v3.33h6.85v1.58h-8.61v-11.04h8.45V1407.38z"/>
		<path class="st4" d="M1620.21,1416.87l-2.91-3.97c-0.1,0-0.21,0-0.32,0h-2.82v3.97h-1.76v-11.04h4.58c3.44,0,5.04,1.18,5.04,3.49
			c0,1.66-0.96,2.83-2.82,3.33l3.23,4.23H1620.21z M1616.91,1407.38h-2.75v4.03h2.64c2.34,0,3.41-0.74,3.41-2.03
			C1620.21,1408.04,1619.21,1407.38,1616.91,1407.38z"/>
	</g>
	<g>
		<rect x="587.15" y="1300.2" class="st2" width="499.15" height="97.08"/>
		<rect x="988.82" y="1300.2" class="st4" width="59.87" height="97.08"/>
		<line class="st12" x1="1086.3" y1="1300.2" x2="1086.3" y2="1397.28"/>
		<line class="st12" x1="587.15" y1="1300.2" x2="587.15" y2="1397.28"/>
		<rect x="876.5" y="1317.46" class="st17" width="100.04" height="7.01"/>
		<rect x="876.5" y="1330.94" class="st18" width="100.04" height="7.01"/>
		<rect x="876.5" y="1344.43" class="st19" width="100.04" height="7.01"/>
		<rect x="876.5" y="1357.91" class="st20" width="100.04" height="7.01"/>
		<rect x="876.5" y="1371.39" class="st21" width="100.04" height="7.01"/>
		<rect x="1007.56" y="1344.7" width="23.46" height="6.47"/>
		<polygon class="st22" points="648.36,1345.24 638.92,1335.8 638.92,1361.68 648.36,1361.68 		"/>
		<polygon class="st22" points="650.13,1345.24 659.57,1335.8 659.57,1361.68 650.13,1361.68 		"/>
		<path class="st23" d="M638.92,1366.2c-9.7,0-17.56-7.86-17.56-17.56s7.86-17.56,17.56-17.56"/>
		<g>
			<path class="st22" d="M675.44,1342.13h5.95v2.43c0.86-1.01,1.72-1.73,2.59-2.16c0.87-0.43,1.93-0.64,3.16-0.64
				c1.33,0,2.38,0.24,3.15,0.7c0.77,0.47,1.41,1.17,1.9,2.1c1-1.08,1.91-1.82,2.74-2.21c0.82-0.39,1.84-0.59,3.05-0.59
				c1.78,0,3.17,0.53,4.17,1.59c1,1.06,1.5,2.72,1.5,4.97v10.44h-6.39v-9.47c0-0.75-0.15-1.31-0.44-1.67
				c-0.43-0.57-0.96-0.86-1.59-0.86c-0.75,0-1.35,0.27-1.81,0.81c-0.46,0.54-0.69,1.41-0.69,2.61v8.58h-6.39v-9.16
				c0-0.73-0.04-1.23-0.13-1.49c-0.14-0.42-0.37-0.75-0.71-1.01c-0.33-0.25-0.73-0.38-1.18-0.38c-0.73,0-1.34,0.28-1.81,0.83
				c-0.47,0.55-0.71,1.46-0.71,2.72v8.48h-6.39V1342.13z"/>
			<path class="st22" d="M719.84,1352.24l6.06,0.69c-0.33,1.26-0.88,2.36-1.64,3.28c-0.76,0.92-1.73,1.64-2.92,2.15
				c-1.18,0.51-2.69,0.77-4.52,0.77c-1.76,0-3.23-0.17-4.41-0.49s-2.18-0.86-3.03-1.59c-0.85-0.73-1.51-1.6-1.99-2.59
				s-0.72-2.3-0.72-3.94c0-1.71,0.29-3.13,0.88-4.27c0.43-0.83,1.01-1.58,1.75-2.24c0.74-0.66,1.5-1.15,2.29-1.48
				c1.24-0.51,2.83-0.77,4.77-0.77c2.71,0,4.78,0.49,6.21,1.46c1.42,0.97,2.42,2.39,3,4.26l-5.99,0.8c-0.19-0.71-0.53-1.24-1.02-1.6
				c-0.5-0.36-1.16-0.54-2-0.54c-1.05,0-1.91,0.38-2.56,1.13c-0.65,0.75-0.98,1.9-0.98,3.43c0,1.36,0.32,2.4,0.97,3.11
				c0.65,0.71,1.47,1.06,2.47,1.06c0.83,0,1.54-0.21,2.1-0.64C719.13,1353.78,719.56,1353.13,719.84,1352.24z"/>
			<path class="st22" d="M728.28,1335.81h6.51v11.84l4.76-5.52h7.84l-5.96,5.82l6.31,10.8h-7.18l-3.37-6.66l-2.4,2.34v4.32h-6.51
				V1335.81z"/>
			<path class="st22" d="M749.89,1335.81h6.37v4.34h-6.37V1335.81z M749.89,1342.13h6.37v16.62h-6.37V1342.13z"/>
			<path class="st22" d="M760.33,1342.13h5.93v2.71c0.89-1.11,1.78-1.9,2.69-2.37c0.91-0.47,2.01-0.71,3.32-0.71
				c1.76,0,3.14,0.52,4.14,1.57c1,1.05,1.49,2.67,1.49,4.86v10.56h-6.4v-9.14c0-1.04-0.19-1.78-0.58-2.21s-0.93-0.65-1.63-0.65
				c-0.77,0-1.4,0.29-1.88,0.88c-0.48,0.58-0.72,1.63-0.72,3.15v7.98h-6.37V1342.13z"/>
			<path class="st22" d="M781.71,1342.13h5.93v2.71c0.89-1.11,1.78-1.9,2.69-2.37c0.91-0.47,2.01-0.71,3.32-0.71
				c1.76,0,3.14,0.52,4.14,1.57c1,1.05,1.49,2.67,1.49,4.86v10.56h-6.4v-9.14c0-1.04-0.19-1.78-0.58-2.21s-0.93-0.65-1.63-0.65
				c-0.77,0-1.4,0.29-1.88,0.88c-0.48,0.58-0.72,1.63-0.72,3.15v7.98h-6.37V1342.13z"/>
			<path class="st22" d="M821.54,1352.02h-12.77c0.11,1.02,0.39,1.78,0.83,2.28c0.62,0.72,1.42,1.08,2.41,1.08
				c0.63,0,1.22-0.16,1.78-0.47c0.34-0.2,0.71-0.55,1.11-1.05l6.28,0.58c-0.96,1.67-2.12,2.87-3.47,3.59
				c-1.36,0.72-3.3,1.09-5.84,1.09c-2.2,0-3.93-0.31-5.2-0.93c-1.26-0.62-2.31-1.61-3.14-2.96c-0.83-1.35-1.24-2.94-1.24-4.77
				c0-2.6,0.83-4.7,2.5-6.31c1.66-1.61,3.96-2.41,6.89-2.41c2.38,0,4.26,0.36,5.63,1.08c1.38,0.72,2.43,1.76,3.15,3.13
				c0.72,1.37,1.08,3.15,1.08,5.34V1352.02z M815.06,1348.97c-0.13-1.23-0.46-2.11-0.99-2.64c-0.54-0.53-1.24-0.8-2.12-0.8
				c-1.01,0-1.82,0.4-2.43,1.21c-0.39,0.5-0.63,1.25-0.74,2.24H815.06z"/>
			<path class="st22" d="M822.63,1342.13h6.72l3.43,11.07l3.18-11.07h6.28l-6.59,17.76c-0.75,2.03-1.52,3.39-2.3,4.1
				c-1.11,1-2.79,1.5-5.05,1.5c-0.92,0-2.34-0.13-4.26-0.38l-0.5-4.45c0.92,0.29,1.94,0.44,3.06,0.44c0.75,0,1.36-0.17,1.82-0.52
				c0.46-0.35,0.86-0.96,1.18-1.85L822.63,1342.13z"/>
		</g>
		<g>
			<rect x="1001.84" y="1360.74" class="st16" width="34.9" height="7.36"/>
			<path class="st24" d="M1006.03,1364.69h-1.3v1.73h-1.13v-5.52h2.4c1.79,0,2.57,0.67,2.57,1.9
				C1008.58,1363.98,1007.71,1364.69,1006.03,1364.69z M1005.98,1361.87h-1.24v1.89h1.23c1.01,0,1.46-0.32,1.46-0.95
				C1007.42,1362.16,1006.98,1361.87,1005.98,1361.87z"/>
			<path class="st24" d="M1012.18,1366.51c-1.97,0-3.17-1.1-3.17-2.85s1.22-2.85,3.18-2.85s3.18,1.1,3.18,2.85
				S1014.15,1366.51,1012.18,1366.51z M1012.19,1361.79c-1.23,0-2.03,0.71-2.03,1.85c0,1.14,0.8,1.85,2.04,1.85
				c1.22,0,2.01-0.71,2.01-1.85C1014.21,1362.5,1013.42,1361.79,1012.19,1361.79z"/>
			<path class="st24" d="M1022.81,1366.41h-1.16l-1.7-4.12h-0.02l-1.7,4.12h-1.15l-1.49-5.52h1.18l0.97,3.98h0.02l1.62-3.98h1.14
				l1.61,3.98h0.02l0.97-3.98h1.18L1022.81,1366.41z"/>
			<path class="st24" d="M1029.23,1361.86h-3.17v1.28h2.87v0.91h-2.87v1.38h3.25v0.98h-4.39v-5.52h4.31V1361.86z"/>
			<path class="st24" d="M1033.94,1366.41l-1.3-1.86c-0.02,0-0.05,0-0.07,0h-1.3v1.86h-1.13v-5.52h2.41c1.77,0,2.58,0.62,2.58,1.82
				c0,0.82-0.44,1.4-1.3,1.66l1.51,2.03H1033.94z M1032.51,1361.87h-1.24v1.77h1.19c1.04,0,1.51-0.33,1.51-0.89
				C1033.98,1362.15,1033.55,1361.87,1032.51,1361.87z"/>
		</g>
	</g>
</g>
<g id="tvPower">
	<rect x="1007.56" y="1344.7" class="st25" width="23.46" height="6.47"/>
</g>
<g id="tvGlare">
	
		<radialGradient id="SVGID_6_" cx="844.658" cy="646.875" r="722.04" gradientTransform="matrix(1 8.048029e-03 -6.625334e-03 0.8232 4.3131 107.5712)" gradientUnits="userSpaceOnUse">
		<stop  offset="0.8101" style="stop-color:#000000;stop-opacity:0"/>
		<stop  offset="1" style="stop-color:#000000;stop-opacity:0.2"/>
	</radialGradient>
	<path class="st26" d="M1464.75,1054.57c-1.96,32.4-30.07,59.67-62.46,60.78c-374.81,20.93-749.96,21.1-1125.49,0
		c-32.35-1.82-60.5-28.38-62.46-60.78c-15.73-265.33-15.73-530.66,0-795.99c1.96-32.4,30.1-59.05,62.46-60.78
		c376.58-20.04,751.76-20.14,1125.49,0c32.36,1.74,60.5,28.38,62.46,60.78C1480.48,523.91,1480.48,789.24,1464.75,1054.57z"/>
	
		<radialGradient id="SVGID_7_" cx="357.1718" cy="338.3979" r="1297.8002" gradientTransform="matrix(1.0273 0 0 1.0237 -22.905 -15.5995)" gradientUnits="userSpaceOnUse">
		<stop  offset="0" style="stop-color:#FFFFFF;stop-opacity:0.2"/>
		<stop  offset="1" style="stop-color:#FFFFFF;stop-opacity:0"/>
	</radialGradient>
	<path class="st27" d="M1464.75,1054.57c-1.96,32.4-30.07,59.67-62.46,60.78c-374.81,20.93-749.96,21.1-1125.49,0
		c-32.35-1.82-60.5-28.38-62.46-60.78c-15.73-265.33-15.73-530.66,0-795.99c1.96-32.4,30.1-59.05,62.46-60.78
		c376.58-20.04,751.76-20.14,1125.49,0c32.36,1.74,60.5,28.38,62.46,60.78C1480.48,523.91,1480.48,789.24,1464.75,1054.57z"/>
	<g>
	</g>
	<g>
	</g>
	<g>
	</g>
	<g>
	</g>
	<g>
	</g>
	<g>
	</g>
	<g>
	</g>
	<g>
	</g>
	<g>
	</g>
	<g>
	</g>
	<g>
	</g>
	<g>
	</g>
	<g>
	</g>
	<g>
	</g>
	<g>
	</g>
</g>
</svg>
